<svg width="248" height="146" viewBox="0 0 248 146" fill="none" xmlns="http://www.w3.org/2000/svg">
<mask id="path-1-outside-1_8_2" maskUnits="userSpaceOnUse" x="-1" y="-1" width="250" height="148" fill="black">
<rect fill="white" x="-1" y="-1" width="250" height="148"/>
<path d="M146.361 0.54545L122.213 146H95.6506L47.7102 54.4517H46.5739L31.304 146H0.551136L24.6989 0.54545H51.6875L99.4148 92.0227H100.622L115.75 0.54545H146.361Z"/>
<path d="M121.988 146L146.136 0.54545H247.556L242.727 29.0966H176.462L171.633 58.9261H232.712L227.883 87.5483H166.803L161.974 117.449H228.238L223.408 146H121.988Z"/>
</mask>
<path d="M146.361 0.54545L122.213 146H95.6506L47.7102 54.4517H46.5739L31.304 146H0.551136L24.6989 0.54545H51.6875L99.4148 92.0227H100.622L115.75 0.54545H146.361Z" fill="#005BC7"/>
<path d="M121.988 146L146.136 0.54545H247.556L242.727 29.0966H176.462L171.633 58.9261H232.712L227.883 87.5483H166.803L161.974 117.449H228.238L223.408 146H121.988Z" fill="#0E0E0E"/>
<path d="M146.361 0.54545L147.347 0.709224L147.541 -0.45455H146.361V0.54545ZM122.213 146V147H123.061L123.2 146.164L122.213 146ZM95.6506 146L94.7647 146.464L95.0454 147H95.6506V146ZM47.7102 54.4517L48.5961 53.9878L48.3154 53.4517H47.7102V54.4517ZM46.5739 54.4517V53.4517H45.7268L45.5875 54.2872L46.5739 54.4517ZM31.304 146V147H32.151L32.2904 146.165L31.304 146ZM0.551136 146L-0.435362 145.836L-0.628566 147H0.551136V146ZM24.6989 0.54545V-0.45455H23.8512L23.7124 0.381676L24.6989 0.54545ZM51.6875 0.54545L52.5741 0.0828842L52.2937 -0.45455H51.6875V0.54545ZM99.4148 92.0227L98.5282 92.4853L98.8086 93.0227H99.4148V92.0227ZM100.622 92.0227V93.0227H101.47L101.609 92.1859L100.622 92.0227ZM115.75 0.54545V-0.45455H114.902L114.763 0.382294L115.75 0.54545ZM145.374 0.381676L121.227 145.836L123.2 146.164L147.347 0.709224L145.374 0.381676ZM122.213 145H95.6506V147H122.213V145ZM96.5365 145.536L48.5961 53.9878L46.8243 54.9156L94.7647 146.464L96.5365 145.536ZM47.7102 53.4517H46.5739V55.4517H47.7102V53.4517ZM45.5875 54.2872L30.3176 145.835L32.2904 146.165L47.5602 54.6162L45.5875 54.2872ZM31.304 145H0.551136V147H31.304V145ZM1.53763 146.164L25.6854 0.709224L23.7124 0.381676L-0.435362 145.836L1.53763 146.164ZM24.6989 1.54545H51.6875V-0.45455H24.6989V1.54545ZM50.8009 1.00802L98.5282 92.4853L100.301 91.5602L52.5741 0.0828842L50.8009 1.00802ZM99.4148 93.0227H100.622V91.0227H99.4148V93.0227ZM101.609 92.1859L116.737 0.708607L114.763 0.382294L99.6356 91.8596L101.609 92.1859ZM115.75 1.54545H146.361V-0.45455H115.75V1.54545ZM121.988 146L121.001 145.836L120.808 147H121.988V146ZM146.136 0.54545V-0.45455H145.288L145.149 0.381676L146.136 0.54545ZM247.556 0.54545L248.542 0.712235L248.739 -0.45455H247.556V0.54545ZM242.727 29.0966V30.0966H243.572L243.713 29.2634L242.727 29.0966ZM176.462 29.0966V28.0966H175.611L175.475 28.9368L176.462 29.0966ZM171.633 58.9261L170.646 58.7663L170.458 59.9261H171.633V58.9261ZM232.712 58.9261L233.698 59.0925L233.895 57.9261H232.712V58.9261ZM227.883 87.5483V88.5483H228.728L228.869 87.7147L227.883 87.5483ZM166.803 87.5483V86.5483H165.952L165.816 87.3888L166.803 87.5483ZM161.974 117.449L160.987 117.289L160.799 118.449H161.974V117.449ZM228.238 117.449L229.224 117.616L229.421 116.449H228.238V117.449ZM223.408 146V147H224.253L224.394 146.167L223.408 146ZM122.974 146.164L147.122 0.709224L145.149 0.381676L121.001 145.836L122.974 146.164ZM146.136 1.54545H247.556V-0.45455H146.136V1.54545ZM246.57 0.378665L241.741 28.9298L243.713 29.2634L248.542 0.712235L246.57 0.378665ZM242.727 28.0966H176.462V30.0966H242.727V28.0966ZM175.475 28.9368L170.646 58.7663L172.62 59.086L177.45 29.2564L175.475 28.9368ZM171.633 59.9261H232.712V57.9261H171.633V59.9261ZM231.726 58.7597L226.897 87.3819L228.869 87.7147L233.698 59.0925L231.726 58.7597ZM227.883 86.5483H166.803V88.5483H227.883V86.5483ZM165.816 87.3888L160.987 117.289L162.961 117.608L167.79 87.7077L165.816 87.3888ZM161.974 118.449H228.238V116.449H161.974V118.449ZM227.252 117.282L222.422 145.833L224.394 146.167L229.224 117.616L227.252 117.282ZM223.408 145H121.988V147H223.408V145Z" fill="white" mask="url(#path-1-outside-1_8_2)"/>
</svg>
